<svg width="523" height="374" viewBox="0 0 523 374" fill="none" xmlns="http://www.w3.org/2000/svg">
<path opacity="0.1" d="M322.098 62.647C299.656 78.3895 270.548 77.3705 245.039 69.1803C219.531 60.9901 196.102 46.4075 171.245 36.0427C150.533 27.3865 128.71 21.6863 106.416 19.109C74.7421 15.4785 39.3694 19.9009 17.2992 45.3503C-7.27722 73.6897 -5.39025 124.806 21.1928 150.824C34.7134 164.057 52.4185 170.551 67.8589 180.884C83.2993 191.216 97.5918 208.372 96.2768 228.315C95.0595 246.777 80.9068 260.943 66.2612 269.832C54.9411 276.702 40.9983 284.204 39.634 298.433C38.3138 312.2 50.0359 322.988 61.2301 329.123C97.7486 349.138 142.742 348.945 179.12 328.619C192.1 321.366 204.03 311.723 217.642 306.07C253.378 291.231 292.757 306.169 330.598 311.632C362.753 316.246 395.523 313.856 426.672 304.625C445.413 299.079 464.223 290.601 477.388 274.808C486.881 263.418 492.796 249.006 498.348 234.772C504.269 219.593 509.96 204.307 515.422 188.914C518.701 179.674 521.927 170.254 522.774 160.369C524.309 142.452 517.845 124.745 509.042 109.625C488.144 73.728 452.946 48.4866 414.848 42.0743C376.75 35.6621 336.383 48.1854 306.818 75.5887" fill="#FFC13D"/>
<path d="M438.975 255.024L440.582 254.799C440.217 252.198 447.11 244.555 451.632 241.134C454.77 238.761 457.095 236.389 458.741 233.883C461.363 229.893 462.063 225.794 460.822 221.702C458.249 213.212 463.23 201.023 463.28 200.901L461.782 200.277C461.566 200.797 456.527 213.121 459.27 222.173C461.093 228.19 458.195 234.133 450.654 239.837C447.101 242.525 438.409 250.99 438.975 255.024Z" fill="#D4D5E0"/>
<path d="M449.982 180.377C454.586 168.008 466.721 161.124 477.086 165C487.451 168.877 492.121 182.046 487.517 194.414C483.047 206.423 471.477 213.261 461.321 210.101C460.996 211.41 461.054 212.785 461.491 214.062C462.364 216.19 456.755 212.291 456.755 212.291C457.61 211.346 458.308 210.268 458.82 209.099C449.582 204.524 445.621 192.092 449.982 180.377Z" fill="#FFC13D"/>
<path opacity="0.2" d="M478.391 201.422C481.791 197.385 482.281 192.143 479.606 189.423C479.742 189.518 479.875 189.62 480.003 189.728C483.083 192.33 482.703 197.855 479.155 202.068C475.711 206.159 470.546 207.509 467.43 205.202C467.21 205.543 474.952 205.506 478.391 201.422Z" fill="white"/>
<path d="M138.859 346.835L137.128 346.908C137.01 344.105 128.295 337.405 122.885 334.683C119.131 332.794 116.231 330.75 114.019 328.435C110.496 324.748 108.97 320.578 109.485 316.039C110.552 306.624 102.97 294.779 102.893 294.661L104.347 293.716C104.674 294.221 112.344 306.197 111.206 316.235C110.45 322.908 114.641 328.592 123.663 333.132C127.914 335.271 138.676 342.488 138.859 346.835Z" fill="#D4D5E0"/>
<path d="M112.907 270.536C105.686 258.43 91.6112 253.536 81.4694 259.606C71.3276 265.677 68.9599 280.412 76.1809 292.518C83.192 304.272 96.6645 309.226 106.725 303.948C107.319 305.26 107.522 306.717 107.31 308.143C106.803 310.546 111.944 305.369 111.944 305.369C110.863 304.541 109.922 303.543 109.159 302.413C117.983 295.827 119.747 282.003 112.907 270.536Z" fill="#FFC13D"/>
<path opacity="0.2" d="M87.1192 298.121C82.7693 294.535 81.2442 289.123 83.5299 285.75C83.4052 285.876 83.2852 286.008 83.1711 286.147C80.4376 289.474 81.9014 295.204 86.4407 298.947C90.848 302.58 96.5339 303.003 99.3627 299.979C99.6596 300.295 91.5191 301.749 87.1192 298.121Z" fill="white"/>
<path d="M186.824 177.326L185.093 177.399C184.975 174.596 176.26 167.896 170.85 165.174C167.096 163.285 164.196 161.241 161.983 158.926C158.461 155.239 156.935 151.069 157.45 146.53C158.516 137.115 150.935 125.27 150.858 125.152L152.312 124.207C152.639 124.712 160.309 136.688 159.171 146.726C158.415 153.399 162.606 159.083 171.627 163.623C175.879 165.762 186.641 172.979 186.824 177.326Z" fill="#D4D5E0"/>
<path d="M160.872 101.027C153.651 88.9206 139.576 84.0273 129.434 90.0975C119.293 96.1676 116.925 110.903 124.146 123.009C131.157 134.763 144.629 139.717 154.69 134.439C155.284 135.751 155.487 137.208 155.275 138.634C154.768 141.037 159.909 135.86 159.909 135.86C158.828 135.032 157.887 134.033 157.124 132.904C165.948 126.318 167.712 112.494 160.872 101.027Z" fill="#FFC13D"/>
<path opacity="0.2" d="M135.084 128.612C130.734 125.026 129.209 119.614 131.495 116.241C131.37 116.367 131.25 116.499 131.136 116.638C128.403 119.965 129.866 125.695 134.406 129.438C138.813 133.072 144.499 133.494 147.328 130.471C147.625 130.786 139.484 132.24 135.084 128.612Z" fill="white"/>
<path d="M166.915 254.407L165.183 254.48C165.065 251.677 156.351 244.977 150.94 242.255C147.186 240.366 144.286 238.322 142.074 236.007C138.551 232.32 137.026 228.15 137.54 223.611C138.607 214.196 131.025 202.351 130.948 202.233L132.402 201.288C132.729 201.793 140.399 213.769 139.262 223.807C138.506 230.48 142.697 236.164 151.718 240.704C155.969 242.843 166.731 250.06 166.915 254.407Z" fill="#D4D5E0"/>
<path d="M140.963 178.108C133.742 166.002 119.666 161.108 109.525 167.179C99.3829 173.249 97.0152 187.984 104.236 200.09C111.247 211.844 124.72 216.798 134.78 211.52C135.374 212.832 135.577 214.289 135.365 215.715C134.858 218.118 139.999 212.941 139.999 212.941C138.918 212.113 137.978 211.114 137.214 209.985C146.038 203.399 147.802 189.575 140.963 178.108Z" fill="#FFC13D"/>
<path opacity="0.2" d="M115.174 205.693C110.825 202.107 109.3 196.695 111.585 193.322C111.46 193.448 111.34 193.58 111.226 193.719C108.493 197.046 109.957 202.776 114.496 206.519C118.903 210.153 124.589 210.575 127.418 207.552C127.715 207.867 119.574 209.321 115.174 205.693Z" fill="white"/>
<path d="M390.1 183.742L389 182.401C391.165 180.62 391.267 169.616 390.185 163.649C389.433 159.509 389.319 155.959 389.835 152.796C390.657 147.759 393.065 144.03 396.994 141.712C405.145 136.903 410.032 123.712 410.08 123.579L411.708 124.174C411.502 124.74 406.563 138.081 397.874 143.208C392.097 146.616 390.084 153.389 391.889 163.339C392.74 168.027 393.457 180.981 390.1 183.742Z" fill="#D4D5E0"/>
<path d="M435.344 117.085C440.657 104.024 436.094 89.8169 425.153 85.3511C414.213 80.8853 401.037 87.8523 395.724 100.912C390.566 113.593 394.718 127.354 404.978 132.231C404.288 133.496 403.249 134.535 401.985 135.222C399.763 136.262 406.984 137.263 406.984 137.263C406.994 135.899 407.224 134.546 407.666 133.256C418.226 136.357 430.312 129.455 435.344 117.085Z" fill="#FFC13D"/>
<path opacity="0.2" d="M397.834 113.036C398.078 107.398 401.477 102.923 405.542 102.723C405.366 102.699 405.189 102.683 405.01 102.675C400.712 102.488 397.022 107.106 396.767 112.99C396.52 118.703 399.602 123.507 403.715 123.953C403.642 124.38 397.587 118.739 397.834 113.036Z" fill="white"/>
<path opacity="0.1" d="M265.809 373.052C355.69 373.052 428.554 367.628 428.554 360.937C428.554 354.246 355.69 348.822 265.809 348.822C175.928 348.822 103.065 354.246 103.065 360.937C103.065 367.628 175.928 373.052 265.809 373.052Z" fill="#FFC13D"/>
<path d="M214.386 53.759L212.547 55.7555V72.9559H214.386V53.759Z" fill="#53425A"/>
<path d="M222.052 104.437H210.094V70.0395H219.292C219.197 70.3043 219.126 70.5773 219.081 70.855C218.722 72.8315 218.832 76.5588 219.168 80.8297C219.968 91.0669 222.052 104.437 222.052 104.437Z" fill="#FFC13D"/>
<path d="M216.839 18.8978C216.839 18.8978 217.759 22.5835 208.101 32.7194C198.442 42.8554 202.275 63.2807 212.546 62.6664C212.546 62.6664 222.149 64.2531 225.603 57.7045C226.322 56.2913 226.644 54.7093 226.536 53.1271C226.428 51.5448 225.894 50.0215 224.99 48.7193C221.816 44.0368 215.694 34.1964 216.839 29.4944V18.8978Z" fill="#FF9A3D"/>
<path opacity="0.5" d="M214.897 32.8271C214.897 32.8271 215.472 35.1293 209.439 41.4602C203.407 47.791 205.8 60.5487 212.216 60.165C212.216 60.165 218.348 61.1782 220.442 56.9276C220.854 56.0539 221.028 55.0866 220.948 54.1237C220.867 53.1607 220.534 52.2362 219.982 51.4436C218.108 48.6785 214.604 43.0548 214.819 39.9663C214.853 39.4835 214.897 39.0016 214.897 38.5177V32.8271Z" fill="white"/>
<path opacity="0.5" d="M219.168 80.8296C216.358 83.7921 212.476 89.095 210.094 92.4537V80.2998C212.72 77.1301 216.482 73.366 219.081 70.855C218.722 72.8315 218.832 76.5588 219.168 80.8296Z" fill="#FF00C7" fill-opacity="0.5"/>
<path d="M252.1 45.3124V64.3557H254.093V44.3912L252.1 45.3124Z" fill="#53425A"/>
<path d="M263.753 104.437L248.728 106.28V61.4379H258.234C258.17 61.9446 258.129 62.5205 258.106 63.161C258.077 66.5445 258.276 69.9261 258.699 73.283C259.021 76.204 259.444 79.3416 259.908 82.4607C260.267 84.8795 260.653 87.2844 261.035 89.5742C262.415 97.7889 263.753 104.437 263.753 104.437Z" fill="#FFC13D"/>
<path d="M255.883 0.945023C255.883 0.945023 257.001 5.42694 245.257 17.7522C233.512 30.0775 238.172 54.9148 250.663 54.1679C250.663 54.1679 262.34 56.0973 266.54 48.1342C267.414 46.4157 267.806 44.492 267.675 42.568C267.543 40.6439 266.894 38.7915 265.795 37.2081C261.935 31.5142 254.491 19.5482 255.883 13.8306V0.945023Z" fill="#FF9A3D"/>
<path opacity="0.5" d="M254.651 23.1914C254.651 23.1914 255.275 25.6919 248.723 32.5685C242.17 39.4451 244.77 53.3023 251.739 52.8856C251.739 52.8856 258.254 53.962 260.597 49.5193C261.085 48.5605 261.303 47.4872 261.23 46.4137C261.157 45.3403 260.794 44.3068 260.181 43.4233C258.028 40.2466 253.874 33.5705 254.651 30.3805V23.1914Z" fill="white"/>
<path opacity="0.5" d="M258.699 73.283C255.188 76.0989 251.858 79.1334 248.728 82.3685V70.749C251.559 67.875 254.705 65.3296 258.106 63.1609C258.077 66.5444 258.276 69.926 258.699 73.283V73.283Z" fill="#FF00C7" fill-opacity="0.5"/>
<path d="M261.035 89.5742C257.342 92.8177 252.26 97.4295 248.728 100.645V92.3293C252.416 88.9292 256.928 85.013 259.908 82.4606C260.267 84.8794 260.653 87.2844 261.035 89.5742Z" fill="#FCC550" fill-opacity="0.5"/>
<path d="M304.227 99.8299L289.509 101.06V65.1236H299.628C299.269 65.8884 299.113 67.1784 299.108 68.8186C299.173 71.7832 299.437 74.7401 299.899 77.6691C301.334 87.7359 304.227 99.8299 304.227 99.8299Z" fill="#FFC13D"/>
<path d="M296.551 14.275C296.551 14.275 297.471 17.9608 287.813 28.0967C278.154 38.2326 281.987 58.658 292.259 58.0438C292.259 58.0438 301.861 59.6304 305.316 53.0819C306.034 51.6686 306.357 50.0867 306.249 48.5044C306.141 46.9221 305.607 45.3988 304.703 44.0966C301.529 39.4141 295.407 29.5737 296.551 24.8717V14.275Z" fill="#FF9A3D"/>
<path opacity="0.5" d="M295.333 36.2439C295.333 36.2439 295.763 37.9689 291.243 42.7126C286.723 47.4564 288.516 57.0157 293.324 56.7283C293.324 56.7283 297.818 57.4708 299.434 54.406C299.771 53.7446 299.922 53.0042 299.871 52.2637C299.821 51.5232 299.571 50.8102 299.148 50.2008C297.662 48.0093 294.797 43.4039 295.333 41.2033V36.2439Z" fill="white"/>
<path opacity="0.5" d="M299.899 77.6691C296.353 80.6454 292.241 84.7366 289.509 87.5516V75.9644C292.412 73.0711 296.261 70.5141 299.108 68.8186C299.173 71.7832 299.438 74.7401 299.899 77.6691V77.6691Z" fill="#FF00C7" fill-opacity="0.5"/>
<path d="M292.88 50.3803V68.0416H295.64L295.027 48.3838L292.88 50.3803Z" fill="#53425A"/>
<path d="M334.274 112.73H184.186V181.535H334.274V112.73Z" fill="#401700"/>
<path opacity="0.1" d="M334.274 112.73V123.087C331.404 123.645 327.642 122.783 324.491 121.728C322.631 121.098 320.652 120.899 318.704 121.145C316.756 121.391 314.888 122.075 313.242 123.147C304.595 128.809 297.843 127.612 293.134 124.796C290.801 123.37 288.166 122.517 285.442 122.307C282.717 122.096 279.982 122.534 277.459 123.585C275.257 124.492 272.89 124.927 270.51 124.861C267.727 124.823 264.992 125.579 262.622 127.04C255.521 131.348 248.442 128.855 243.995 126.252C241.081 124.57 237.634 124.072 234.364 124.861C232.965 125.199 231.522 125.317 230.087 125.211C226.803 124.903 223.505 125.616 220.64 127.252C208.916 134.112 205.044 125.782 202.735 124.557C200.127 123.175 199.823 127.934 199.055 127.934C198.287 127.934 195.684 121.641 195.068 123.787C194.783 124.796 192.368 126.008 189.884 127.013C188.078 127.743 186.103 127.947 184.186 127.602V112.73H334.274Z" fill="black"/>
<path d="M190.166 99.0129C190.166 99.0129 165.568 110.009 178.694 123.749C180.114 125.212 181.938 126.217 183.932 126.634C185.926 127.051 187.999 126.862 189.885 126.09C192.367 125.088 194.781 123.876 195.069 122.868C195.682 120.718 198.289 127.014 199.055 127.014C199.822 127.014 200.128 122.253 202.735 123.635C205.043 124.86 208.915 133.193 220.637 126.329C223.504 124.694 226.804 123.982 230.089 124.29C231.523 124.397 232.965 124.279 234.363 123.939C237.633 123.151 241.08 123.648 243.995 125.329C248.443 127.933 255.522 130.425 262.621 126.121C264.991 124.658 267.728 123.901 270.511 123.938C272.891 124.007 275.258 123.571 277.458 122.661C279.982 121.612 282.717 121.175 285.441 121.386C288.165 121.597 290.801 122.449 293.134 123.873C297.844 126.692 304.597 127.888 313.242 122.227C314.887 121.154 316.754 120.468 318.702 120.222C320.65 119.975 322.629 120.175 324.489 120.804C330.776 122.914 339.512 124.259 338.72 115.035C337.494 100.753 320.63 96.6064 313.577 96.4528C306.525 96.2992 294.874 95.0706 281.689 96.4528C268.504 97.835 241.675 97.6814 241.675 97.6814C241.675 97.6814 196.625 95.8896 190.166 99.0129Z" fill="#F8F8FA"/>
<path d="M367.619 181.535H153.522V265.769H367.619V181.535Z" fill="#401700"/>
<path opacity="0.1" d="M334.274 167.165V181.535H250.811C250.668 181.516 250.526 181.502 250.383 181.493C249.677 181.44 248.967 181.454 248.263 181.535H184.186V168.722C191.167 169.574 198.209 170.657 205.149 170.629C214.362 170.588 223.464 168.671 232.694 169.187C264.968 170.984 297.829 171.518 329.974 167.69C331.404 167.519 332.839 167.34 334.274 167.165Z" fill="black"/>
<path opacity="0.1" d="M367.619 181.535V189.132C365.292 188.837 363.052 187.906 360.803 187.169C358.775 186.506 356.581 185.99 354.52 186.538C353.435 186.828 352.446 187.4 351.374 187.731C346.895 189.132 342.222 186.215 337.526 186.197C332.871 186.179 328.709 188.989 324.165 190.012C317.142 191.592 309.962 188.819 303.234 186.248C300.511 185.211 297.356 184.221 294.812 185.64C293.695 186.262 292.853 187.284 291.763 187.957C288.576 189.929 284.404 188.39 281.226 186.4C279.216 185.142 276.783 183.663 274.663 184.723C273.568 185.266 272.883 186.367 271.977 187.183C269.107 189.758 264.59 189.067 261.072 187.501C257.558 185.934 254.219 183.622 250.383 183.336C244.975 182.926 240.237 186.579 235.518 189.256C230.8 191.933 224.255 193.518 220.405 189.685C219.131 188.418 218.188 186.584 216.445 186.146C213.561 185.428 211.395 189.003 208.488 189.629C204.906 190.403 201.99 186.584 198.398 185.833C194.681 185.054 191.223 187.644 187.943 189.556C184.664 191.468 179.899 192.546 177.521 189.583C176.763 188.639 176.349 187.367 175.309 186.741C174.516 186.352 173.626 186.209 172.752 186.331C169.641 186.503 166.585 187.235 163.733 188.491C160.458 189.938 157.289 192.108 153.716 192.039C153.651 192.039 153.587 192.034 153.522 192.03V181.535H367.619Z" fill="black"/>
<path d="M205.148 171.55C188.725 171.62 171.762 165.452 156.279 170.937C150.661 172.928 144.963 177.637 145.556 183.577C145.817 185.593 146.777 187.452 148.269 188.831C149.76 190.21 151.688 191.019 153.714 191.119C157.291 191.188 160.459 189.016 163.732 187.571C166.585 186.313 169.641 185.58 172.754 185.407C173.628 185.289 174.519 185.433 175.311 185.821C176.349 186.444 176.764 187.719 177.523 188.664C179.902 191.626 184.663 190.547 187.943 188.635C191.223 186.722 194.683 184.132 198.398 184.91C201.988 185.661 204.904 189.482 208.488 188.708C211.394 188.08 213.56 184.508 216.444 185.227C218.19 185.662 219.131 187.495 220.407 188.765C224.253 192.596 230.798 191.013 235.518 188.335C240.237 185.657 244.973 182.005 250.382 182.412C254.22 182.701 257.556 185.015 261.074 186.58C264.591 188.146 269.109 188.836 271.976 186.263C272.885 185.447 273.57 184.344 274.663 183.799C276.782 182.743 279.217 184.222 281.224 185.479C284.403 187.468 288.576 189.008 291.765 187.035C292.851 186.362 293.696 185.34 294.811 184.718C297.355 183.299 300.513 184.289 303.234 185.328C309.961 187.898 317.143 190.672 324.167 189.09C328.707 188.067 332.873 185.259 337.527 185.277C342.22 185.294 346.894 188.211 351.375 186.812C352.446 186.477 353.435 185.908 354.518 185.618C356.582 185.068 358.773 185.583 360.803 186.248C363.497 187.131 366.179 188.292 369.013 188.301C371.848 188.309 374.948 186.759 375.626 184.002C376.145 181.892 375.133 179.705 373.872 177.937C369.29 171.517 361.346 168.213 353.516 167.335C345.687 166.456 337.797 167.682 329.974 168.613C297.828 172.439 264.965 171.906 232.695 170.109C223.465 169.594 214.361 171.511 205.148 171.55Z" fill="#F8F8FA"/>
<path d="M375.764 258.167H139.035V355.84H375.764V258.167Z" fill="#401700"/>
<path opacity="0.1" d="M376.813 255.49C364.972 258.049 352.978 259.834 340.906 260.834C336.854 260.126 332.69 260.445 328.792 261.76C328.718 261.783 328.645 261.806 328.571 261.834C321.111 264.478 314.69 270.749 306.78 270.648C300.465 270.565 295.006 266.386 288.939 264.635C287.205 264.134 285.417 263.842 283.613 263.764C282.387 263.701 281.159 263.735 279.938 263.866C272.602 264.059 265.267 264.138 257.931 263.986C247.168 263.769 236.429 263.055 225.69 262.345C214.21 261.585 202.73 260.825 191.25 260.065C180.451 259.351 169.651 258.637 158.848 257.922C156.199 257.747 153.547 257.571 150.892 257.393C148.035 257.204 145.915 257.821 144.761 255.264C143.39 252.205 144.6 249.159 146.279 246.496C147.723 246.524 149.171 246.626 150.611 246.727C172.485 248.27 194.355 249.867 216.22 251.518L212.858 252.113C235.696 248.51 258.823 247.077 281.93 247.833C292.715 248.187 303.56 249.017 314.267 247.639C321.792 246.672 329.164 244.626 336.726 243.986C347.111 243.106 357.519 244.902 367.794 246.695C369.956 247.036 372.1 247.491 374.214 248.058C374.762 250.694 375.373 253.324 376.813 255.49Z" fill="black"/>
<path opacity="0.1" d="M375.764 258.167V267.349C372.812 266.911 369.919 266.478 368.125 268.579C367.283 269.57 366.957 270.915 366.138 271.928C364.45 274.016 361.152 274.011 358.742 272.827C356.337 271.643 354.502 269.57 352.428 267.865C349.126 265.208 345.208 263.431 341.037 262.699C336.866 261.967 332.577 262.303 328.571 263.677C321.111 266.321 314.69 272.592 306.78 272.491C300.465 272.408 295.006 268.229 288.939 266.478C285.506 265.512 281.902 265.322 278.387 265.92C274.871 266.519 271.532 267.891 268.61 269.938C264.315 272.993 260.258 277.734 255.029 277.13C252.287 276.812 249.983 275.024 247.656 273.536C242.972 270.553 237.71 268.6 232.216 267.805C229.82 267.464 227.276 267.363 225.069 268.358C222.286 269.616 220.488 272.394 217.903 274.025C211.901 277.807 204.119 274.393 197.933 270.924C191.742 267.455 184.085 263.903 177.954 267.469C176.51 268.307 175.272 269.505 173.745 270.178C165.122 273.969 156.654 259.36 147.806 262.59C145.809 263.318 144.218 264.889 142.254 265.699C141.235 266.114 140.129 266.269 139.035 266.151V258.167H375.764Z" fill="black"/>
<path d="M216.222 252.438C194.356 250.79 172.486 249.193 150.612 247.649C146.813 247.381 142.918 247.124 139.268 248.21C135.618 249.296 132.207 252.027 131.427 255.76C130.246 261.404 136.932 266.97 142.255 264.776C144.22 263.966 145.81 262.394 147.807 261.666C156.654 258.44 165.123 273.047 173.743 269.254C175.272 268.582 176.508 267.388 177.952 266.548C184.085 262.981 191.742 266.535 197.931 270.005C204.119 273.474 211.901 276.884 217.904 273.102C220.489 271.473 222.284 268.695 225.069 267.438C227.278 266.441 229.818 266.541 232.216 266.885C237.71 267.678 242.973 269.632 247.657 272.617C249.984 274.102 252.288 275.889 255.029 276.207C260.259 276.814 264.317 272.069 268.609 269.016C271.532 266.97 274.871 265.598 278.386 264.999C281.901 264.4 285.506 264.59 288.939 265.555C295.004 267.306 300.466 271.486 306.778 271.569C314.69 271.672 321.111 265.401 328.569 262.754C332.576 261.381 336.865 261.045 341.036 261.778C345.207 262.51 349.126 264.287 352.428 266.943C354.502 268.649 356.335 270.72 358.743 271.905C361.152 273.09 364.45 273.095 366.139 271.007C366.957 269.995 367.281 268.647 368.126 267.658C371.579 263.614 379.099 268.958 383.285 265.682C384.254 264.869 384.928 263.758 385.202 262.521C386.251 258.331 383.623 253.914 380.024 251.534C376.425 249.153 372.04 248.359 367.792 247.618C357.521 245.825 347.113 244.025 336.725 244.905C329.164 245.546 321.792 247.595 314.266 248.562C303.561 249.938 292.716 249.11 281.929 248.756C258.822 247.999 235.695 249.431 212.856 253.033" fill="#F8F8FA"/>
<path opacity="0.1" d="M375.764 329.247V352.196C366.704 352.661 357.642 353.123 348.578 353.582C333.943 354.329 319.294 355.075 304.646 354.789C292.264 354.545 279.911 353.568 267.534 353.181C241.511 352.371 215.415 354.19 189.466 352.103C181.16 351.435 172.881 350.371 164.561 349.897C156.054 349.425 147.524 349.548 139.035 350.265V328.643C139.816 328.579 140.601 328.56 141.385 328.588C145.49 328.723 149.524 329.7 153.237 331.458C156.139 332.836 158.89 334.706 162.054 335.255C170.287 336.678 177.439 328.888 185.773 328.266C192.483 327.768 198.513 331.938 204.271 335.425C205.379 336.093 206.612 336.766 207.886 336.577C208.953 336.42 209.831 335.688 210.701 335.047C218.915 328.975 231.43 329.712 238.871 336.711C239.681 337.466 240.486 338.319 241.553 338.6C243.664 339.162 245.559 337.328 247.233 335.918C256.303 328.256 270.28 330.56 280.688 336.273C282.615 337.328 284.749 338.53 286.879 337.978C288.304 337.609 289.404 336.513 290.544 335.577C299.407 328.293 312.736 329.648 323.107 334.545C324.11 335.02 325.168 335.531 326.267 335.407C327.587 335.25 328.599 334.232 329.615 333.38C332.1 331.36 335.101 330.08 338.276 329.685C341.452 329.291 344.674 329.799 347.575 331.15C349.213 331.938 350.73 333.002 352.469 333.536C357.422 335.052 362.454 331.97 367.398 330.408C370.104 329.561 372.931 329.168 375.764 329.247V329.247Z" fill="black"/>
<path d="M400.711 351.845C383.335 352.735 365.957 353.621 348.578 354.504C333.943 355.25 319.294 355.997 304.646 355.711C292.264 355.467 279.911 354.49 267.534 354.103C241.511 353.292 215.415 355.112 189.466 353.025C181.16 352.357 172.881 351.293 164.561 350.818C155.198 350.304 145.81 350.503 136.477 351.412C134.481 351.601 131.409 352.601 129.477 352.209C127.394 351.786 128.19 351.546 128.87 349.57C129.074 348.982 129.246 348.383 129.385 347.777C129.956 345.358 130.061 342.917 130.296 340.406C130.6 337.199 131.069 333.67 133.718 331.491C135.801 329.772 138.685 329.422 141.385 329.51C145.49 329.645 149.524 330.622 153.237 332.38C156.139 333.758 158.89 335.628 162.054 336.176C170.287 337.6 177.439 329.809 185.773 329.187C192.483 328.69 198.513 332.859 204.271 336.347C205.379 337.015 206.612 337.687 207.886 337.499C208.953 337.342 209.831 336.609 210.701 335.969C218.915 329.897 231.43 330.634 238.871 337.632C239.681 338.388 240.486 339.24 241.553 339.521C243.664 340.083 245.559 338.25 247.233 336.84C256.303 329.178 270.28 331.482 280.688 337.195C282.615 338.25 284.749 339.452 286.879 338.899C288.304 338.531 289.404 337.434 290.544 336.499C299.407 329.215 312.736 330.569 323.107 335.467C324.11 335.941 325.168 336.453 326.267 336.328C327.587 336.172 328.599 335.154 329.615 334.301C332.1 332.281 335.101 331.001 338.276 330.607C341.452 330.213 344.674 330.72 347.575 332.071C349.213 332.859 350.73 333.923 352.469 334.458C357.422 335.974 362.454 332.891 367.398 331.33C373.858 329.286 380.86 329.865 386.899 332.941C392.937 336.017 397.528 341.345 399.685 347.777C400.142 349.102 400.485 350.463 400.711 351.845V351.845Z" fill="#F8F8FA"/>
<path opacity="0.1" d="M400.711 351.845C383.335 352.735 365.957 353.621 348.578 354.504C333.943 355.25 319.294 355.997 304.646 355.711C292.264 355.467 279.911 354.49 267.534 354.103C241.511 353.292 215.415 355.112 189.466 353.025C181.16 352.357 172.881 351.293 164.561 350.818C155.198 350.304 145.81 350.503 136.477 351.412C134.481 351.601 131.409 352.601 129.477 352.209C127.394 351.786 128.19 351.546 128.87 349.569C129.074 348.982 129.246 348.383 129.385 347.777H399.685C400.142 349.102 400.485 350.463 400.711 351.845V351.845Z" fill="black"/>
<path d="M122.674 348.238H403.756C406.187 348.238 408.518 349.205 410.237 350.927C411.956 352.649 412.922 354.984 412.922 357.42V358.604H113.509V357.42C113.509 354.984 114.474 352.649 116.193 350.927C117.912 349.205 120.244 348.238 122.674 348.238Z" fill="#53425A"/>
<path d="M191.844 106.783L191.66 106.727C191.265 106.608 190.848 106.833 190.73 107.229L189.82 110.265C189.701 110.661 189.925 111.078 190.32 111.197L190.505 111.252C190.9 111.371 191.316 111.147 191.435 110.751L192.345 107.714C192.463 107.319 192.239 106.902 191.844 106.783Z" fill="#FF9A3D"/>
<path d="M167.326 174.413L167.142 174.358C166.747 174.239 166.33 174.463 166.212 174.859L165.302 177.896C165.183 178.291 165.407 178.709 165.802 178.827L165.987 178.883C166.382 179.002 166.798 178.777 166.917 178.381L167.827 175.345C167.946 174.949 167.722 174.532 167.326 174.413Z" fill="#FF9A3D"/>
<path d="M141.068 252.724L140.883 252.668C140.488 252.55 140.072 252.774 139.953 253.17L139.043 256.206C138.924 256.602 139.148 257.019 139.543 257.138L139.728 257.194C140.123 257.312 140.539 257.088 140.658 256.692L141.568 253.656C141.687 253.26 141.463 252.843 141.068 252.724Z" fill="#FF9A3D"/>
<path d="M206.725 257.926L206.54 257.87C206.145 257.751 205.729 257.976 205.61 258.372L204.7 261.408C204.582 261.804 204.806 262.221 205.201 262.34L205.385 262.395C205.78 262.514 206.197 262.29 206.315 261.894L207.226 258.857C207.344 258.462 207.12 258.045 206.725 257.926Z" fill="#FF9A3D"/>
<path d="M245.709 254.995L245.524 254.939C245.129 254.82 244.713 255.045 244.594 255.441L243.684 258.477C243.565 258.873 243.789 259.29 244.184 259.409L244.369 259.464C244.764 259.583 245.18 259.359 245.299 258.963L246.209 255.926C246.328 255.531 246.104 255.114 245.709 254.995Z" fill="#FF9A3D"/>
<path d="M300.661 260.936L300.477 260.88C300.082 260.761 299.665 260.986 299.547 261.382L298.636 264.418C298.518 264.814 298.742 265.231 299.137 265.35L299.322 265.405C299.717 265.524 300.133 265.3 300.252 264.904L301.162 261.868C301.281 261.472 301.056 261.055 300.661 260.936Z" fill="#FF9A3D"/>
<path d="M338.245 252.254L338.06 252.198C337.665 252.08 337.249 252.304 337.13 252.7L336.22 255.736C336.101 256.132 336.325 256.549 336.721 256.668L336.905 256.724C337.3 256.842 337.717 256.618 337.835 256.222L338.745 253.186C338.864 252.79 338.64 252.373 338.245 252.254Z" fill="#FF9A3D"/>
<path d="M173.179 255.96L172.994 255.904C172.599 255.785 172.183 256.01 172.064 256.405L171.154 259.442C171.036 259.838 171.26 260.255 171.655 260.374L171.839 260.429C172.234 260.548 172.651 260.324 172.769 259.928L173.68 256.891C173.798 256.495 173.574 256.078 173.179 255.96Z" fill="#FF9A3D"/>
<path d="M252.863 263.849L252.678 263.793C252.283 263.674 251.867 263.899 251.748 264.295L250.838 267.331C250.719 267.727 250.943 268.144 251.338 268.263L251.523 268.318C251.918 268.437 252.334 268.213 252.453 267.817L253.363 264.78C253.482 264.385 253.258 263.967 252.863 263.849Z" fill="#FF9A3D"/>
<path d="M285.743 254.995L285.558 254.939C285.163 254.82 284.747 255.045 284.628 255.441L283.718 258.477C283.599 258.873 283.824 259.29 284.219 259.409L284.403 259.464C284.798 259.583 285.215 259.359 285.333 258.963L286.243 255.926C286.362 255.531 286.138 255.114 285.743 254.995Z" fill="#FF9A3D"/>
<path d="M355.185 252.254L355.001 252.198C354.606 252.08 354.189 252.304 354.071 252.7L353.16 255.736C353.042 256.132 353.266 256.549 353.661 256.668L353.845 256.724C354.241 256.842 354.657 256.618 354.776 256.222L355.686 253.186C355.804 252.79 355.58 252.373 355.185 252.254Z" fill="#FF9A3D"/>
<path d="M275.46 106.599L275.346 106.754C275.102 107.087 275.173 107.555 275.505 107.8L278.055 109.678C278.387 109.923 278.855 109.852 279.099 109.519L279.213 109.363C279.458 109.03 279.386 108.562 279.054 108.317L276.504 106.439C276.172 106.194 275.704 106.266 275.46 106.599Z" fill="#FF9A3D"/>
<path d="M254.985 105.066L254.87 105.222C254.626 105.555 254.697 106.023 255.03 106.268L257.58 108.146C257.912 108.391 258.38 108.319 258.624 107.986L258.738 107.831C258.982 107.498 258.911 107.03 258.579 106.785L256.029 104.907C255.696 104.662 255.229 104.733 254.985 105.066Z" fill="#FF9A3D"/>
<path d="M221.739 105.066L221.625 105.222C221.38 105.555 221.452 106.023 221.784 106.268L224.334 108.146C224.666 108.391 225.134 108.319 225.378 107.986L225.492 107.831C225.736 107.498 225.665 107.03 225.333 106.785L222.783 104.907C222.451 104.662 221.983 104.733 221.739 105.066Z" fill="#FF9A3D"/>
<path d="M177.451 172.89L177.337 173.045C177.092 173.378 177.164 173.846 177.496 174.091L180.046 175.969C180.378 176.214 180.846 176.142 181.09 175.81L181.204 175.654C181.449 175.321 181.377 174.853 181.045 174.608L178.495 172.73C178.163 172.485 177.695 172.557 177.451 172.89Z" fill="#FF9A3D"/>
<path d="M179.976 179.742L179.862 179.897C179.617 180.23 179.689 180.698 180.021 180.943L182.571 182.821C182.903 183.066 183.371 182.995 183.615 182.662L183.729 182.506C183.973 182.173 183.902 181.705 183.57 181.46L181.02 179.582C180.688 179.337 180.22 179.409 179.976 179.742Z" fill="#FF9A3D"/>
<path d="M234.628 173.434L234.514 173.589C234.27 173.922 234.341 174.39 234.674 174.635L237.224 176.513C237.556 176.758 238.023 176.687 238.268 176.354L238.382 176.198C238.626 175.865 238.555 175.397 238.223 175.152L235.673 173.274C235.34 173.029 234.873 173.101 234.628 173.434Z" fill="#FF9A3D"/>
<path d="M212.95 262.606L212.836 262.761C212.591 263.094 212.662 263.562 212.995 263.807L215.545 265.685C215.877 265.93 216.345 265.859 216.589 265.526L216.703 265.37C216.947 265.037 216.876 264.569 216.544 264.324L213.994 262.446C213.661 262.201 213.194 262.273 212.95 262.606Z" fill="#FF9A3D"/>
<path d="M293.821 176.966L293.706 177.122C293.462 177.455 293.533 177.923 293.866 178.168L296.416 180.046C296.748 180.291 297.216 180.219 297.46 179.886L297.574 179.731C297.818 179.398 297.747 178.93 297.415 178.685L294.865 176.807C294.532 176.562 294.065 176.633 293.821 176.966Z" fill="#FF9A3D"/>
<path d="M318.165 180.202L318.051 180.358C317.807 180.691 317.878 181.159 318.21 181.404L320.76 183.282C321.093 183.527 321.56 183.455 321.804 183.122L321.919 182.967C322.163 182.634 322.092 182.166 321.759 181.921L319.209 180.043C318.877 179.798 318.41 179.869 318.165 180.202Z" fill="#FF9A3D"/>
<path d="M310.799 253.001L310.685 253.157C310.44 253.489 310.512 253.958 310.844 254.202L313.394 256.081C313.726 256.325 314.194 256.254 314.438 255.921L314.552 255.766C314.796 255.433 314.725 254.964 314.393 254.72L311.843 252.841C311.511 252.597 311.043 252.668 310.799 253.001Z" fill="#FF9A3D"/>
<path d="M360.97 261.666L360.856 261.822C360.612 262.155 360.683 262.623 361.015 262.868L363.565 264.746C363.898 264.991 364.365 264.919 364.609 264.587L364.724 264.431C364.968 264.098 364.897 263.63 364.564 263.385L362.014 261.507C361.682 261.262 361.214 261.334 360.97 261.666Z" fill="#FF9A3D"/>
<path d="M190.806 256.707L190.692 256.862C190.448 257.195 190.519 257.663 190.852 257.908L193.402 259.786C193.734 260.031 194.201 259.96 194.446 259.627L194.56 259.471C194.804 259.138 194.733 258.67 194.401 258.425L191.851 256.547C191.518 256.302 191.051 256.374 190.806 256.707Z" fill="#FF9A3D"/>
<path d="M154.274 253.471L154.16 253.627C153.916 253.959 153.987 254.428 154.319 254.673L156.869 256.551C157.202 256.795 157.669 256.724 157.914 256.391L158.028 256.236C158.272 255.903 158.201 255.434 157.868 255.19L155.318 253.312C154.986 253.067 154.519 253.138 154.274 253.471Z" fill="#FF9A3D"/>
<path d="M226.77 259.134L226.656 259.289C226.411 259.622 226.483 260.09 226.815 260.335L229.365 262.213C229.697 262.458 230.165 262.387 230.409 262.054L230.523 261.898C230.767 261.565 230.696 261.097 230.364 260.852L227.814 258.974C227.482 258.729 227.014 258.801 226.77 259.134Z" fill="#FF9A3D"/>
<path d="M265.886 256.707L265.771 256.862C265.527 257.195 265.598 257.663 265.931 257.908L268.481 259.786C268.813 260.031 269.28 259.96 269.525 259.627L269.639 259.471C269.883 259.138 269.812 258.67 269.48 258.425L266.93 256.547C266.597 256.302 266.13 256.374 265.886 256.707Z" fill="#FF9A3D"/>
<path d="M318.983 108.866L318.872 108.708C318.633 108.371 318.167 108.292 317.831 108.531L315.248 110.364C314.912 110.603 314.832 111.07 315.071 111.407L315.182 111.564C315.42 111.901 315.887 111.981 316.223 111.742L318.806 109.909C319.142 109.67 319.222 109.203 318.983 108.866Z" fill="#FF9A3D"/>
<path d="M275.84 115.224L275.729 115.066C275.49 114.729 275.024 114.65 274.688 114.889L272.105 116.722C271.769 116.961 271.689 117.428 271.928 117.765L272.039 117.922C272.278 118.259 272.744 118.339 273.08 118.1L275.663 116.267C275.999 116.028 276.079 115.561 275.84 115.224Z" fill="#FF9A3D"/>
<path d="M204.491 177.806L204.38 177.648C204.141 177.311 203.675 177.232 203.338 177.471L200.756 179.304C200.42 179.543 200.34 180.01 200.579 180.347L200.69 180.504C200.928 180.841 201.395 180.921 201.731 180.682L204.314 178.849C204.65 178.61 204.73 178.143 204.491 177.806Z" fill="#FF9A3D"/>
<path d="M226.064 179.931L225.952 179.774C225.714 179.437 225.248 179.357 224.911 179.596L222.329 181.429C221.992 181.668 221.913 182.135 222.151 182.472L222.263 182.629C222.501 182.967 222.967 183.046 223.304 182.807L225.886 180.974C226.223 180.735 226.302 180.268 226.064 179.931Z" fill="#FF9A3D"/>
<path d="M267.765 179.931L267.654 179.774C267.416 179.437 266.949 179.357 266.613 179.596L264.03 181.429C263.694 181.668 263.614 182.135 263.853 182.472L263.964 182.63C264.203 182.967 264.669 183.046 265.006 182.807L267.588 180.974C267.924 180.735 268.004 180.268 267.765 179.931Z" fill="#FF9A3D"/>
<path d="M280.802 175.5L280.691 175.342C280.453 175.005 279.986 174.926 279.65 175.164L277.067 176.998C276.731 177.236 276.651 177.703 276.89 178.041L277.001 178.198C277.24 178.535 277.706 178.615 278.042 178.376L280.625 176.543C280.961 176.304 281.041 175.837 280.802 175.5Z" fill="#FF9A3D"/>
<path d="M311.66 177.156L311.548 176.998C311.31 176.661 310.843 176.582 310.507 176.821L307.925 178.654C307.588 178.893 307.508 179.36 307.747 179.697L307.858 179.854C308.097 180.191 308.563 180.271 308.9 180.032L311.482 178.199C311.819 177.96 311.898 177.493 311.66 177.156Z" fill="#FF9A3D"/>
<path d="M334.175 173.623L334.063 173.466C333.825 173.129 333.359 173.049 333.022 173.288L330.44 175.121C330.103 175.36 330.024 175.827 330.262 176.164L330.374 176.322C330.612 176.659 331.078 176.738 331.415 176.499L333.997 174.666C334.334 174.427 334.413 173.96 334.175 173.623Z" fill="#FF9A3D"/>
<path d="M364.746 175.5L364.635 175.342C364.396 175.005 363.93 174.926 363.593 175.164L361.011 176.998C360.674 177.236 360.595 177.703 360.833 178.041L360.945 178.198C361.183 178.535 361.649 178.615 361.986 178.376L364.568 176.543C364.905 176.304 364.984 175.837 364.746 175.5Z" fill="#FF9A3D"/>
<path d="M269.738 103.354L269.554 103.299C269.159 103.18 268.742 103.404 268.623 103.8L267.713 106.837C267.595 107.232 267.819 107.649 268.214 107.768L268.398 107.824C268.793 107.943 269.21 107.718 269.328 107.322L270.239 104.286C270.357 103.89 270.133 103.473 269.738 103.354Z" fill="#FF9A3D"/>
<path d="M295.023 102.23L294.838 102.175C294.443 102.056 294.027 102.28 293.908 102.676L292.998 105.712C292.879 106.108 293.103 106.525 293.498 106.644L293.683 106.7C294.078 106.819 294.494 106.594 294.613 106.198L295.523 103.162C295.642 102.766 295.418 102.349 295.023 102.23Z" fill="#FF9A3D"/>
<path d="M260.311 112.471L260.126 112.415C259.731 112.296 259.315 112.521 259.196 112.917L258.286 115.953C258.167 116.349 258.391 116.766 258.786 116.885L258.971 116.94C259.366 117.059 259.782 116.835 259.901 116.439L260.811 113.402C260.93 113.007 260.706 112.589 260.311 112.471Z" fill="#FF9A3D"/>
<path d="M210.856 114.287L210.671 114.232C210.276 114.113 209.86 114.337 209.741 114.733L208.831 117.77C208.712 118.165 208.936 118.582 209.331 118.701L209.516 118.757C209.911 118.876 210.327 118.651 210.446 118.255L211.356 115.219C211.475 114.823 211.251 114.406 210.856 114.287Z" fill="#FF9A3D"/>
<path d="M298.901 110.2L298.717 110.144C298.322 110.026 297.905 110.25 297.787 110.646L296.876 113.682C296.758 114.078 296.982 114.495 297.377 114.614L297.561 114.67C297.956 114.788 298.373 114.564 298.492 114.168L299.402 111.132C299.52 110.736 299.296 110.319 298.901 110.2Z" fill="#FF9A3D"/>
<path d="M206.725 103.354L206.54 103.299C206.145 103.18 205.729 103.404 205.61 103.8L204.7 106.837C204.582 107.232 204.806 107.649 205.201 107.768L205.385 107.824C205.78 107.943 206.197 107.718 206.315 107.322L207.226 104.286C207.344 103.89 207.12 103.473 206.725 103.354Z" fill="#FF9A3D"/>
<path d="M232.702 107.929L232.518 107.874C232.123 107.755 231.706 107.979 231.588 108.375L230.677 111.412C230.559 111.807 230.783 112.224 231.178 112.343L231.363 112.399C231.758 112.518 232.174 112.293 232.293 111.897L233.203 108.861C233.321 108.465 233.097 108.048 232.702 107.929Z" fill="#FF9A3D"/>
<path d="M371.1 343.742L370 342.401C372.165 340.62 372.267 329.616 371.185 323.649C370.433 319.509 370.319 315.959 370.835 312.796C371.657 307.759 374.065 304.03 377.994 301.712C386.145 296.903 391.032 283.712 391.08 283.579L392.708 284.174C392.502 284.74 387.563 298.081 378.874 303.208C373.097 306.616 371.084 313.389 372.889 323.339C373.74 328.027 374.457 340.981 371.1 343.742Z" fill="#D4D5E0"/>
<path d="M416.344 277.084C421.657 264.024 417.094 249.817 406.153 245.351C395.213 240.885 382.037 247.852 376.724 260.912C371.566 273.593 375.718 287.354 385.978 292.231C385.288 293.496 384.249 294.535 382.985 295.222C380.763 296.262 387.984 297.263 387.984 297.263C387.994 295.899 388.224 294.546 388.666 293.256C399.226 296.357 411.312 289.455 416.344 277.084Z" fill="#FFC13D"/>
<path opacity="0.2" d="M378.834 273.036C379.078 267.398 382.477 262.923 386.542 262.723C386.366 262.699 386.189 262.683 386.01 262.675C381.712 262.488 378.022 267.106 377.767 272.99C377.52 278.703 380.602 283.507 384.715 283.953C384.642 284.38 378.587 278.739 378.834 273.036Z" fill="white"/>
</svg>
