<svg width="152" height="152" viewBox="0 0 152 152" fill="none" xmlns="http://www.w3.org/2000/svg">
<g clip-path="url(#clip0)">
<path d="M74.5529 71.2183H63.1398V52.1043H76.6795C84.0407 52.1043 88.2184 55.3885 88.2184 61.3278C88.2184 67.6698 83.355 71.2183 74.5403 71.2183H74.5529ZM76.5914 78.8061H63.1461V99.8706H77.1828C86.3624 99.8706 91.2258 96.19 91.2258 89.2691C91.2258 82.3483 86.224 78.8061 76.5914 78.8061V78.8061ZM151.5 72.1621V79.8253C144.403 80.5048 140.068 85.7647 137.495 94.0948C134.934 102.394 134.582 112.573 134.852 120.432C135.135 128.611 128.762 136.161 120.149 136.161H31.864C23.2444 136.161 16.8709 128.611 17.1603 120.432C17.4309 112.573 17.0785 102.394 14.5178 94.0948C11.9382 85.7647 7.597 80.5048 0.5 79.8253V72.1621C7.597 71.4826 11.9445 66.2228 14.5115 57.8926C17.0785 49.5939 17.4309 39.414 17.154 31.5557C16.8709 23.3765 23.2444 15.8265 31.864 15.8265H120.149C128.768 15.8265 135.135 23.3765 134.852 31.5557C134.582 39.414 134.934 49.5939 137.495 57.8926C140.068 66.2228 144.403 71.4826 151.5 72.1621ZM101.626 89.8857C101.626 81.3668 95.63 75.2073 86.7273 74.2321V73.8734C93.2706 72.8101 98.4046 66.7324 98.4046 59.95C98.4046 50.2797 90.7728 43.9817 79.1395 43.9817H52.9662V107.981H79.2717C93.2266 107.981 101.626 101.148 101.626 89.8857V89.8857Z" fill="#7952B3"/>
</g>
<defs>
<clipPath id="clip0">
<rect width="151" height="151" fill="white" transform="translate(0.5 0.5)"/>
</clipPath>
</defs>
</svg>
