<svg width="152" height="152" viewBox="0 0 152 152" fill="none" xmlns="http://www.w3.org/2000/svg">
<g clip-path="url(#clip0)">
<path d="M100.236 57.0055H71.3694V0.5H100.236C115.814 0.5 128.485 13.1714 128.485 28.7496C128.485 44.3277 115.814 57.0055 100.236 57.0055V57.0055ZM80.6244 47.7504H100.236C110.711 47.7504 119.23 39.2252 119.23 28.7559C119.23 18.2865 110.705 9.76133 100.236 9.76133H80.6244V47.7504V47.7504ZM80.6244 57.0055H51.7646C36.1864 57.0055 23.515 44.334 23.515 28.7559C23.515 13.1777 36.1864 0.5 51.7646 0.5H80.6307V57.0055H80.6244ZM51.7646 9.75504C41.2889 9.75504 32.77 18.2802 32.77 28.7496C32.77 39.2189 41.2889 47.7504 51.7646 47.7504H71.3757V9.75504H51.7646ZM80.6244 104.25H51.7646C36.1864 104.25 23.515 91.5782 23.515 76C23.515 60.4218 36.1864 47.7504 51.7646 47.7504H80.6307V104.25H80.6244ZM51.7646 57.0055C41.2889 57.0055 32.77 65.5307 32.77 76C32.77 86.4693 41.2952 94.9945 51.7646 94.9945H71.3757V57.0055H51.7646ZM51.9156 151.5C36.2556 151.5 23.5087 138.829 23.5087 123.25C23.5087 107.672 36.1801 95.0008 51.7583 95.0008H80.6244V122.942C80.6244 138.69 67.7454 151.5 51.9156 151.5V151.5ZM51.7646 104.25C46.7289 104.256 41.9015 106.26 38.3407 109.82C34.78 113.381 32.7767 118.209 32.77 123.244C32.77 133.72 41.3581 142.239 51.9219 142.239C62.6491 142.239 71.382 133.581 71.382 122.936V104.25H51.7646V104.25ZM100.236 104.25H99.619C84.0408 104.25 71.3694 91.5782 71.3694 76C71.3694 60.4218 84.0408 47.7504 99.619 47.7504H100.236C115.814 47.7504 128.485 60.4218 128.485 76C128.485 91.5782 115.814 104.25 100.236 104.25V104.25ZM99.6253 57.0055C89.1496 57.0055 80.6307 65.5307 80.6307 76C80.6307 86.4693 89.1559 94.9945 99.6253 94.9945H100.242C110.717 94.9945 119.236 86.4693 119.236 76C119.236 65.5307 110.711 57.0055 100.242 57.0055H99.6253V57.0055Z" fill="#F24E1E"/>
</g>
<defs>
<clipPath id="clip0">
<rect width="151" height="151" fill="white" transform="translate(0.5 0.5)"/>
</clipPath>
</defs>
</svg>
