<svg width="152" height="152" viewBox="0 0 152 152" fill="none" xmlns="http://www.w3.org/2000/svg">
<g clip-path="url(#clip0)">
<path fill-rule="evenodd" clip-rule="evenodd" d="M76 0.5C34.2862 0.5 0.5 34.2862 0.5 76C0.5 109.409 22.1119 137.627 52.1231 147.631C55.8981 148.291 57.3137 146.026 57.3137 144.044C57.3137 142.251 57.2194 136.306 57.2194 129.982C38.25 133.474 33.3425 125.358 31.8325 121.111C30.9831 118.941 27.3025 112.24 24.0937 110.447C21.4512 109.031 17.6762 105.539 23.9994 105.445C29.945 105.351 34.1919 110.919 35.6075 113.184C42.4025 124.603 53.2556 121.394 57.5969 119.412C58.2575 114.505 60.2394 111.202 62.41 109.314C45.6112 107.427 28.0575 100.915 28.0575 72.0362C28.0575 63.8256 30.9831 57.0306 35.7962 51.7456C35.0412 49.8581 32.3987 42.1194 36.5512 31.7381C36.5512 31.7381 42.8744 29.7563 57.3137 39.4769C63.3537 37.7781 69.7712 36.9287 76.1887 36.9287C82.6062 36.9287 89.0237 37.7781 95.0637 39.4769C109.503 29.6619 115.826 31.7381 115.826 31.7381C119.979 42.1194 117.336 49.8581 116.581 51.7456C121.394 57.0306 124.32 63.7312 124.32 72.0362C124.32 101.009 106.672 107.427 89.8731 109.314C92.61 111.674 94.9694 116.204 94.9694 123.282C94.9694 133.38 94.875 141.496 94.875 144.044C94.875 146.026 96.2906 148.386 100.066 147.631C115.053 142.57 128.077 132.938 137.304 120.088C146.531 107.238 151.495 91.819 151.5 76C151.5 34.2862 117.714 0.5 76 0.5Z" fill="#333333"/>
</g>
<defs>
<clipPath id="clip0">
<rect width="151" height="151" fill="white" transform="translate(0.5 0.5)"/>
</clipPath>
</defs>
</svg>
