<svg width="152" height="152" viewBox="0 0 152 152" fill="none" xmlns="http://www.w3.org/2000/svg">
<g clip-path="url(#clip0)">
<path d="M66.7512 68.0096C66.1221 66.0592 65.5558 64.1717 64.9267 62.2213C64.2975 60.2708 63.7313 58.4463 63.2279 56.6217C62.7246 54.86 62.2842 53.2242 61.8437 51.7142H61.7179C61.1517 54.4196 60.4596 57.125 59.5788 59.8304C58.635 62.8504 57.6913 65.9963 56.6846 69.1421C55.8038 72.3508 54.86 75.3079 53.9162 77.9504H69.8971C69.5196 76.6229 69.0162 75.0563 68.45 73.4141C67.8837 71.7217 67.3175 69.8971 66.7512 68.0096V68.0096ZM124.76 2.38751H27.2396C12.4542 2.38751 0.5 14.3417 0.5 29.1271V122.873C0.5 137.658 12.4542 149.613 27.2396 149.613H124.76C139.546 149.613 151.5 137.658 151.5 122.873V29.1271C151.5 14.3417 139.546 2.38751 124.76 2.38751ZM92.9875 106.389H79.8316C79.3975 106.452 78.9571 106.137 78.8312 105.697L73.6721 90.7225H50.2671L45.4854 105.508C45.3596 106.074 44.8562 106.452 44.29 106.395H32.4617C31.7696 106.395 31.5808 106.011 31.7696 105.263L52.0287 46.9325C52.2175 46.3033 52.4062 45.6113 52.6579 44.8563C52.9096 43.535 53.0354 42.1508 53.0354 40.7667C52.9725 40.4521 53.2242 40.1375 53.5388 40.0746H69.8342C70.3375 40.0746 70.5892 40.2633 70.6521 40.5779L93.6167 105.382C93.8054 106.068 93.6167 106.389 92.9875 106.389V106.389ZM114.379 105.445C114.379 106.137 114.134 106.452 113.568 106.452H101.23C100.6 106.452 100.286 106.068 100.286 105.445V56.9992C100.286 56.37 100.544 56.1183 101.11 56.1183H113.568C114.134 56.1183 114.379 56.4329 114.379 56.9992V105.445V105.445ZM113.064 48.6313C111.611 50.1413 109.472 50.9592 107.332 50.8333C105.256 50.8963 103.243 50.0783 101.727 48.6313C100.28 47.0583 99.5245 44.9821 99.5875 42.8429C99.5245 40.7038 100.342 38.6904 101.846 37.2433C103.369 35.7963 105.382 35.0413 107.458 35.0413C109.918 35.0413 111.793 35.7963 113.184 37.2433C114.568 38.7533 115.323 40.7667 115.26 42.8429C115.323 44.9821 114.568 47.0583 113.064 48.6313V48.6313Z" fill="#FF9A00"/>
</g>
<defs>
<clipPath id="clip0">
<rect width="151" height="151" fill="white" transform="translate(0.5 0.5)"/>
</clipPath>
</defs>
</svg>
