<svg width="152" height="152" viewBox="0 0 152 152" fill="none" xmlns="http://www.w3.org/2000/svg">
<g clip-path="url(#clip0)">
<path d="M0.5 0.5H151.5V151.5H0.5V0.5ZM139.131 115.486C138.03 108.597 133.544 102.809 120.237 97.4105C115.606 95.2399 110.459 93.7299 108.931 90.238C108.358 88.1618 108.27 87.0293 108.641 85.8024C109.585 81.738 114.398 80.5174 118.173 81.6499C120.627 82.4049 122.892 84.2924 124.314 87.3124C130.819 83.0593 130.819 83.0593 135.356 80.2343C133.657 77.5918 132.814 76.453 131.669 75.3268C127.705 70.8912 122.426 68.6262 113.838 68.8212L109.402 69.3812C105.149 70.4193 101.097 72.6843 98.6437 75.7043C91.4712 83.8268 93.5412 97.9831 102.224 103.834C110.812 110.252 123.37 111.661 124.974 117.707C126.484 125.069 119.501 127.428 112.605 126.579C107.502 125.446 104.677 122.892 101.563 118.173L90.0493 124.786C91.3705 127.806 92.8805 129.121 95.1455 131.763C106.093 142.811 133.462 142.245 138.376 125.446C138.558 124.88 139.886 121.011 138.841 115.065L139.131 115.486V115.486ZM82.6125 69.9034H68.4689C68.4689 82.0966 68.4122 94.2144 68.4122 106.427C68.4122 114.178 68.8086 121.294 67.544 123.483C65.4677 127.818 60.1198 127.264 57.6912 126.503C55.1997 125.27 53.9351 123.571 52.4692 121.124C52.0728 120.463 51.7771 119.891 51.6701 119.891L40.1878 126.969C42.1068 130.933 44.9066 134.343 48.518 136.513C53.8974 139.722 61.1265 140.76 68.6954 139.061C73.6217 137.639 77.8686 134.714 80.0896 130.184C83.2983 124.333 82.6188 117.16 82.5874 109.132C82.6629 96.2088 82.5874 83.2795 82.5874 70.2557L82.6125 69.9034V69.9034Z" fill="#F7DF1E"/>
</g>
<defs>
<clipPath id="clip0">
<rect width="151" height="151" fill="white" transform="translate(0.5 0.5)"/>
</clipPath>
</defs>
</svg>
