<svg width="152" height="152" viewBox="0 0 152 152" fill="none" xmlns="http://www.w3.org/2000/svg">
<g clip-path="url(#clip0)">
<path d="M146.152 16.7765L115.071 1.82124C113.315 0.975363 111.339 0.696573 109.417 1.02348C107.495 1.35038 105.722 2.26679 104.344 3.64582L44.8248 57.9429L18.9031 38.2626C17.7337 37.3755 16.2906 36.9258 14.8242 36.9913C13.3579 37.0568 11.9607 37.6334 10.875 38.6212L2.55738 46.1838C1.90921 46.773 1.39123 47.4911 1.03658 48.292C0.681929 49.0929 0.498435 49.9591 0.497842 50.8351C0.49725 51.711 0.679573 52.5775 1.03314 53.3789C1.3867 54.1803 1.90372 54.8991 2.55109 55.4892L25.0312 76L2.55109 96.5108C1.90372 97.1009 1.3867 97.8197 1.03314 98.6211C0.679573 99.4225 0.49725 100.289 0.497842 101.165C0.498435 102.041 0.681929 102.907 1.03658 103.708C1.39123 104.509 1.90921 105.227 2.55738 105.816L10.8813 113.372C11.967 114.36 13.3642 114.937 14.8305 115.002C16.2969 115.068 17.7399 114.618 18.9094 113.731L44.8311 94.0508L104.35 148.348C105.727 149.727 107.499 150.644 109.42 150.971C111.341 151.298 113.316 151.019 115.071 150.172L146.165 135.217C147.764 134.445 149.114 133.237 150.058 131.732C151.001 130.228 151.501 128.487 151.5 126.711V25.2829C151.5 23.5052 150.998 21.7637 150.052 20.2588C149.106 18.7539 147.754 17.5468 146.152 16.7765ZM113.775 110.277L68.6136 76L113.775 41.723V110.277V110.277Z" fill="#007ACC"/>
</g>
<defs>
<clipPath id="clip0">
<rect width="151" height="151" fill="white" transform="translate(0.5 0.5)"/>
</clipPath>
</defs>
</svg>
